<mxfile host="65bd71144e">
    <diagram name="ページ1" id="cP9uIEpzttqN5rxpSAbw">
        <mxGraphModel dx="844" dy="648" grid="1" gridSize="10" guides="1" tooltips="1" connect="1" arrows="1" fold="1" page="1" pageScale="1" pageWidth="1654" pageHeight="1169" math="0" shadow="0">
            <root>
                <mxCell id="0"/>
                <mxCell id="1" parent="0"/>
                <mxCell id="2H462rarafApNkUSx5-_-1" value="虚構と糸&lt;div&gt;～ブラックホール～&lt;/div&gt;" style="text;html=1;align=center;verticalAlign=middle;whiteSpace=wrap;rounded=0;fillColor=#dae8fc;strokeColor=#6c8ebf;" parent="1" vertex="1">
                    <mxGeometry x="120" y="80.18" width="160" height="40" as="geometry"/>
                </mxCell>
                <mxCell id="30" value="" style="rounded=0;whiteSpace=wrap;html=1;fillColor=#f5f5f5;fontColor=#333333;strokeColor=#666666;" vertex="1" parent="1">
                    <mxGeometry x="180" y="160" width="120" height="280" as="geometry"/>
                </mxCell>
                <mxCell id="34" value="" style="shape=collate;whiteSpace=wrap;html=1;rotation=-45;" vertex="1" parent="1">
                    <mxGeometry x="260" y="210" width="80" height="80" as="geometry"/>
                </mxCell>
                <mxCell id="35" value="" style="shape=collate;whiteSpace=wrap;html=1;rotation=46;" vertex="1" parent="1">
                    <mxGeometry x="140" y="310" width="80" height="80" as="geometry"/>
                </mxCell>
                <mxCell id="37" value="時間が止まり&lt;div&gt;未来が無くなる&lt;/div&gt;&lt;div&gt;（事象の地平線）&lt;/div&gt;" style="text;html=1;align=center;verticalAlign=middle;whiteSpace=wrap;rounded=0;" vertex="1" parent="1">
                    <mxGeometry x="320" y="350" width="120" height="60" as="geometry"/>
                </mxCell>
                <mxCell id="38" value="" style="group" vertex="1" connectable="0" parent="1">
                    <mxGeometry x="480" y="160" width="119.47000000000003" height="160.18000000000004" as="geometry"/>
                </mxCell>
                <mxCell id="39" value="" style="triangle;whiteSpace=wrap;html=1;rotation=90;fillColor=#d5e8d4;strokeColor=#82b366;" vertex="1" parent="38">
                    <mxGeometry x="19.82000000000002" y="-19.819999999999993" width="79.83" height="119.47" as="geometry"/>
                </mxCell>
                <mxCell id="40" value="" style="triangle;whiteSpace=wrap;html=1;rotation=-90;fillColor=#fff2cc;strokeColor=#d6b656;" vertex="1" parent="38">
                    <mxGeometry x="19.82000000000002" y="60.53" width="79.83" height="119.47" as="geometry"/>
                </mxCell>
                <mxCell id="41" value="ブラックホール" style="text;html=1;align=center;verticalAlign=middle;whiteSpace=wrap;rounded=0;" vertex="1" parent="1">
                    <mxGeometry x="190" y="410" width="100" height="30" as="geometry"/>
                </mxCell>
                <mxCell id="42" value="" style="endArrow=classic;html=1;" edge="1" parent="1">
                    <mxGeometry width="50" height="50" relative="1" as="geometry">
                        <mxPoint x="640" y="320.18" as="sourcePoint"/>
                        <mxPoint x="640" y="160.18" as="targetPoint"/>
                    </mxGeometry>
                </mxCell>
                <mxCell id="43" value="時間" style="text;html=1;align=center;verticalAlign=middle;whiteSpace=wrap;rounded=0;" vertex="1" parent="1">
                    <mxGeometry x="610" y="120.18" width="60" height="30" as="geometry"/>
                </mxCell>
                <mxCell id="44" value="現在" style="text;html=1;align=center;verticalAlign=middle;whiteSpace=wrap;rounded=0;" vertex="1" parent="1">
                    <mxGeometry x="650" y="229.12" width="60" height="30" as="geometry"/>
                </mxCell>
                <mxCell id="45" value="過去" style="text;html=1;align=center;verticalAlign=middle;whiteSpace=wrap;rounded=0;" vertex="1" parent="1">
                    <mxGeometry x="650" y="290" width="60" height="30" as="geometry"/>
                </mxCell>
                <mxCell id="46" value="未来" style="text;html=1;align=center;verticalAlign=middle;whiteSpace=wrap;rounded=0;" vertex="1" parent="1">
                    <mxGeometry x="650" y="160" width="60" height="30" as="geometry"/>
                </mxCell>
            </root>
        </mxGraphModel>
    </diagram>
</mxfile>